<svg xmlns="http://www.w3.org/2000/svg" viewBox="0 0 20 16" role="img" aria-labelledby="title desc" shape-rendering="crispEdges">
  <title id="title">DreamCode pixel cat logo</title>
  <desc id="desc">A purple pixel cat with black eyes used as the DreamCode brand mark.</desc>
  <path fill="#a855f7" d="M3 0h1v1H3zM13 0h1v1H13zM3 1h2v1H3zM12 1h2v1H12zM3 2h3v1H3zM11 2h3v1H11zM3 3h11v1H3zM2 4h13v1H2zM2 5h13v1H2zM2 6h13v1H2zM2 7h3v1H2zM6 7h5v1H6zM12 7h3v1H12zM0 8h5v1H0zM6 8h5v1H6zM12 8h5v1H12zM18 8h1v1H18zM2 9h13v1H2zM18 9h1v1H18zM0 10h17v1H0zM18 10h1v1H18zM2 11h13v1H2zM18 11h1v1H18zM2 12h13v1H2zM17 12h1v1H17zM2 13h15v1H2zM4 14h1v1H4zM6 14h2v1H6zM11 14h2v1H11zM14 14h1v1H14zM4 15h1v1H4zM6 15h2v1H6zM11 15h2v1H11zM14 15h1v1H14z" />
  <path fill="#000000" d="M5 7h1v1H5zM11 7h1v1H11zM5 8h1v1H5zM11 8h1v1H11z" />
</svg>
